<svg xmlns="http://www.w3.org/2000/svg" viewBox="0 0 125.12 42.96" preserveAspectRatio="xMidYMid meet" id="the_logo"><defs><style>.cls-1{fill:#666;}.cls-2{fill:#444;}.cls-3{fill:#222;}.cls-4{fill:#e44bb0;}</style></defs><title>shiftrrr</title><g id="Layer_2" data-name="Layer 2"><g id="Layer_1-2" data-name="Layer 1"><path class="cls-1" d="M15.82,41.49a19.36,19.36,0,0,1-6.66-3.57.49.49,0,0,1-.11-.57l1.79-3.79a.48.48,0,0,1,.74-.16,18.85,18.85,0,0,0,5.68,3.11A22.6,22.6,0,0,0,25,37.86q5.22,0,7.8-1.77a5.46,5.46,0,0,0,2.58-4.71,4.64,4.64,0,0,0-1.41-3.51,9.43,9.43,0,0,0-3.48-2.07q-2.07-.72-5.85-1.62A60.29,60.29,0,0,1,17,21.9a12.65,12.65,0,0,1-5-3.51A9.37,9.37,0,0,1,9.91,12a10.81,10.81,0,0,1,1.77-6.06,12.16,12.16,0,0,1,5.37-4.32A21.78,21.78,0,0,1,26,0a28.29,28.29,0,0,1,7.32,1A19.79,19.79,0,0,1,39.16,3.5a.48.48,0,0,1,.18.59L37.72,8a.47.47,0,0,1-.68.22A21.82,21.82,0,0,0,31.87,6,21.05,21.05,0,0,0,26,5.1q-5.1,0-7.65,1.86a5.7,5.7,0,0,0-2.55,4.8,4.59,4.59,0,0,0,1.44,3.51,10,10,0,0,0,3.57,2.1A55.78,55.78,0,0,0,26.59,19a58.65,58.65,0,0,1,7.62,2.28,12.83,12.83,0,0,1,4.95,3.48A9.17,9.17,0,0,1,41.23,31a10.72,10.72,0,0,1-1.8,6A12.06,12.06,0,0,1,34,41.37,22.58,22.58,0,0,1,25,43,28.74,28.74,0,0,1,15.82,41.49Z"/><path class="cls-2" d="M12.82,41.49a19.36,19.36,0,0,1-6.66-3.57.49.49,0,0,1-.11-.57l1.79-3.79a.48.48,0,0,1,.74-.16,18.85,18.85,0,0,0,5.68,3.11A22.6,22.6,0,0,0,22,37.86q5.22,0,7.8-1.77a5.46,5.46,0,0,0,2.58-4.71,4.64,4.64,0,0,0-1.41-3.51,9.43,9.43,0,0,0-3.48-2.07q-2.07-.72-5.85-1.62A60.29,60.29,0,0,1,14,21.9a12.65,12.65,0,0,1-5-3.51A9.37,9.37,0,0,1,6.91,12,10.81,10.81,0,0,1,8.68,5.94a12.16,12.16,0,0,1,5.37-4.32A21.78,21.78,0,0,1,23,0a28.29,28.29,0,0,1,7.32,1A19.79,19.79,0,0,1,36.16,3.5a.48.48,0,0,1,.18.59L34.72,8a.47.47,0,0,1-.68.22A21.82,21.82,0,0,0,28.87,6,21.05,21.05,0,0,0,23,5.1q-5.1,0-7.65,1.86a5.7,5.7,0,0,0-2.55,4.8,4.59,4.59,0,0,0,1.44,3.51,10,10,0,0,0,3.57,2.1A55.78,55.78,0,0,0,23.59,19a58.65,58.65,0,0,1,7.62,2.28,12.83,12.83,0,0,1,4.95,3.48A9.17,9.17,0,0,1,38.23,31a10.72,10.72,0,0,1-1.8,6A12.06,12.06,0,0,1,31,41.37,22.58,22.58,0,0,1,22,43,28.74,28.74,0,0,1,12.82,41.49Z"/><path class="cls-3" d="M9.82,41.49a19.36,19.36,0,0,1-6.66-3.57.49.49,0,0,1-.11-.57l1.79-3.79a.48.48,0,0,1,.74-.16,18.85,18.85,0,0,0,5.68,3.11A22.6,22.6,0,0,0,19,37.86q5.22,0,7.8-1.77a5.46,5.46,0,0,0,2.58-4.71,4.64,4.64,0,0,0-1.41-3.51,9.43,9.43,0,0,0-3.48-2.07q-2.07-.72-5.85-1.62A60.29,60.29,0,0,1,11,21.9a12.65,12.65,0,0,1-5-3.51A9.37,9.37,0,0,1,3.91,12,10.81,10.81,0,0,1,5.68,5.94a12.16,12.16,0,0,1,5.37-4.32A21.78,21.78,0,0,1,20,0a28.29,28.29,0,0,1,7.32,1A19.79,19.79,0,0,1,33.16,3.5a.48.48,0,0,1,.18.59L31.72,8a.47.47,0,0,1-.68.22A21.82,21.82,0,0,0,25.87,6,21.05,21.05,0,0,0,20,5.1q-5.1,0-7.65,1.86a5.7,5.7,0,0,0-2.55,4.8,4.59,4.59,0,0,0,1.44,3.51,10,10,0,0,0,3.57,2.1A55.78,55.78,0,0,0,20.59,19a58.65,58.65,0,0,1,7.62,2.28,12.83,12.83,0,0,1,4.95,3.48A9.17,9.17,0,0,1,35.23,31a10.72,10.72,0,0,1-1.8,6A12.06,12.06,0,0,1,28,41.37,22.58,22.58,0,0,1,19,43,28.74,28.74,0,0,1,9.82,41.49Z"/><path class="cls-4" d="M6.82,41.49A19.36,19.36,0,0,1,.16,37.92a.49.49,0,0,1-.11-.57l1.79-3.79a.48.48,0,0,1,.74-.16,18.85,18.85,0,0,0,5.68,3.11A22.6,22.6,0,0,0,16,37.86q5.22,0,7.8-1.77a5.46,5.46,0,0,0,2.58-4.71,4.64,4.64,0,0,0-1.41-3.51,9.43,9.43,0,0,0-3.48-2.07q-2.07-.72-5.85-1.62A60.29,60.29,0,0,1,8,21.9a12.65,12.65,0,0,1-5-3.51A9.37,9.37,0,0,1,.91,12,10.81,10.81,0,0,1,2.68,5.94,12.16,12.16,0,0,1,8.05,1.62,21.78,21.78,0,0,1,17,0a28.29,28.29,0,0,1,7.32,1A19.79,19.79,0,0,1,30.16,3.5a.48.48,0,0,1,.18.59L28.72,8a.47.47,0,0,1-.68.22A21.82,21.82,0,0,0,22.87,6,21.05,21.05,0,0,0,17,5.1Q11.89,5.1,9.34,7a5.7,5.7,0,0,0-2.55,4.8,4.59,4.59,0,0,0,1.44,3.51,10,10,0,0,0,3.57,2.1A55.78,55.78,0,0,0,17.59,19a58.65,58.65,0,0,1,7.62,2.28,12.83,12.83,0,0,1,4.95,3.48A9.17,9.17,0,0,1,32.23,31a10.72,10.72,0,0,1-1.8,6A12.06,12.06,0,0,1,25,41.37,22.58,22.58,0,0,1,16,43,28.74,28.74,0,0,1,6.82,41.49Z"/><path class="cls-3" d="M65.75,21.47c1.71,1.72,2.57,4.19,2.57,7.39v14H66.81V29c0-2.8-.71-4.95-2.13-6.43a8,8,0,0,0-6.07-2.22,9.33,9.33,0,0,0-7,2.63A9.72,9.72,0,0,0,49.05,30V42.82H47.54v-34h1.51V24.74a9.26,9.26,0,0,1,3.71-4.3,11.11,11.11,0,0,1,6-1.56A9.41,9.41,0,0,1,65.75,21.47Z"/><path class="cls-3" d="M73.9,12.41a1.4,1.4,0,0,1-.45-1A1.47,1.47,0,0,1,75,9.87,1.49,1.49,0,0,1,76,10.3a1.41,1.41,0,0,1,.46,1A1.57,1.57,0,0,1,75,12.84,1.5,1.5,0,0,1,73.9,12.41Zm.32,6.66h1.51V42.82H74.22Z"/><path class="cls-3" d="M88,11.31A5.3,5.3,0,0,0,86.82,15v4h7.83v1.32H86.82V42.82H85.31V20.39H80.83V19.07h4.48V14.86a6.19,6.19,0,0,1,1.6-4.49A6,6,0,0,1,91.4,8.72,8.51,8.51,0,0,1,94,9.13a5.54,5.54,0,0,1,2.08,1.19l-.77,1.15a5.49,5.49,0,0,0-3.85-1.42A4.55,4.55,0,0,0,88,11.31Z"/><path class="cls-3" d="M109.67,41.31a5.6,5.6,0,0,1-2.1,1.22,8.24,8.24,0,0,1-2.66.43,5.91,5.91,0,0,1-4.46-1.63,6.13,6.13,0,0,1-1.58-4.46V20.39H94.39V19.07h4.48V13.85h1.51v5.22h7.83v1.32h-7.83V36.64a5.27,5.27,0,0,0,1.19,3.71,4.52,4.52,0,0,0,3.48,1.28,5.49,5.49,0,0,0,3.85-1.42Z"/><path class="cls-3" d="M119.29,20.42a10.48,10.48,0,0,1,5.83-1.54v1.51h-.41A8.21,8.21,0,0,0,118.26,23a10.39,10.39,0,0,0-2.34,7.19V42.82h-1.51V19.07h1.47v5.72A8.61,8.61,0,0,1,119.29,20.42Z"/></g></g></svg>